<svg version="1.1" xmlns="http://www.w3.org/2000/svg" viewBox="-218.11199493408202 -1034.2400390625 6660.0962890625 1351.680029296875"><desc>Created with Snap</desc><defs></defs><g><rect x="-218.11199493408202" y="-1034.2400390625" width="6660.0962890625" height="1351.680029296875" fill="#8f5fe7" style=""></rect><g><g transform="matrix(1.024,0,0,-1.024,0,0)"><path d="M342 0L110 0Q99 0 93 6Q87 13 87 23L87 676Q87 687 93 693Q99 700 110 700L337 700Q440 700 503 669Q566 638 595 577Q624 517 625 429Q626 384 626 350Q626 316 625 272Q623 180 594 119Q566 59 504 29Q443 0 342 0ZM185 615L185 85L337 85Q406 85 447 104Q488 123 506 165Q525 207 526 276Q528 306 528 328Q528 351 528 373Q528 396 526 425Q524 522 480 568Q436 615 332 615L185 615ZM780 0L729 0Q721 0 715 6Q709 12 709 20Q709 25 710 31L958 678Q962 688 969 694Q976 700 990 700L1058 700Q1072 700 1079 694Q1086 688 1090 678L1337 31Q1339 25 1339 20Q1339 12 1333 6Q1327 0 1319 0L1268 0Q1256 0 1250 6Q1245 12 1243 17L1188 159L860 159L805 17Q804 12 798 6Q792 0 780 0ZM1024 600L889 245L1159 245L1024 600ZM1671 -10Q1584 -10 1525 17Q1466 44 1434 86Q1403 129 1401 176Q1401 184 1407 190Q1414 197 1423 197L1474 197Q1486 197 1492 191Q1498 185 1500 177Q1506 153 1525 129Q1544 106 1579 90Q1615 75 1671 75Q1757 75 1797 105Q1838 136 1838 187Q1838 222 1816 243Q1795 265 1751 282Q1707 299 1637 319Q1564 340 1516 365Q1468 390 1444 427Q1421 464 1421 521Q1421 575 1450 617Q1479 660 1534 685Q1589 710 1666 710Q1728 710 1774 693Q1821 677 1852 649Q1883 622 1899 590Q1915 559 1916 529Q1916 522 1911 515Q1906 509 1895 509L1842 509Q1835 509 1827 513Q1820 517 1816 528Q1810 569 1770 597Q1730 625 1666 625Q1601 625 1560 600Q1520 575 1520 522Q1520 488 1539 465Q1558 443 1599 426Q1640 409 1706 390Q1786 368 1837 343Q1888 319 1912 282Q1937 246 1937 189Q1937 126 1904 81Q1871 37 1811 13Q1752 -10 1671 -10ZM2142 0L2091 0Q2080 0 2074 6Q2068 13 2068 23L2068 676Q2068 687 2074 693Q2080 700 2091 700L2142 700Q2153 700 2159 693Q2166 687 2166 676L2166 400L2510 400L2510 676Q2510 687 2516 693Q2523 700 2533 700L2584 700Q2595 700 2601 693Q2608 687 2608 676L2608 23Q2608 13 2601 6Q2595 0 2584 0L2533 0Q2523 0 2516 6Q2510 13 2510 23L2510 310L2166 310L2166 23Q2166 13 2159 6Q2153 0 2142 0ZM3087 0L2805 0Q2794 0 2788 6Q2782 13 2782 23L2782 676Q2782 687 2788 693Q2794 700 2805 700L3079 700Q3154 700 3201 675Q3249 651 3271 609Q3294 567 3294 515Q3294 474 3280 444Q3267 415 3247 396Q3227 378 3208 368Q3247 349 3277 306Q3308 263 3308 202Q3308 147 3283 101Q3258 55 3208 27Q3159 0 3087 0ZM2880 324L2880 81L3074 81Q3138 81 3173 116Q3208 151 3208 202Q3208 255 3173 289Q3138 324 3074 324L2880 324ZM2880 619L2880 404L3064 404Q3128 404 3161 433Q3194 463 3194 514Q3194 565 3161 592Q3128 619 3064 619L2880 619ZM3702 -10Q3616 -10 3555 19Q3494 49 3461 110Q3428 172 3424 265Q3423 309 3423 349Q3423 390 3424 434Q3428 526 3462 587Q3497 649 3558 679Q3620 710 3702 710Q3783 710 3844 679Q3906 649 3941 587Q3976 526 3979 434Q3981 390 3981 349Q3981 309 3979 265Q3976 172 3942 110Q3909 49 3848 19Q3787 -10 3702 -10ZM3702 75Q3778 75 3826 121Q3875 167 3879 270Q3881 315 3881 350Q3881 386 3879 430Q3877 499 3853 542Q3830 585 3791 605Q3752 625 3702 625Q3652 625 3613 605Q3574 585 3550 542Q3527 499 3524 430Q3523 386 3523 350Q3523 315 3524 270Q3528 167 3577 121Q3626 75 3702 75ZM4131 0L4080 0Q4072 0 4066 6Q4060 12 4060 20Q4060 25 4061 31L4309 678Q4313 688 4320 694Q4327 700 4341 700L4409 700Q4423 700 4430 694Q4437 688 4441 678L4688 31Q4690 25 4690 20Q4690 12 4684 6Q4678 0 4670 0L4619 0Q4607 0 4601 6Q4596 12 4594 17L4539 159L4211 159L4156 17Q4155 12 4149 6Q4143 0 4131 0ZM4375 600L4240 245L4510 245L4375 600ZM4871 0L4820 0Q4809 0 4803 6Q4797 13 4797 23L4797 676Q4797 687 4803 693Q4809 700 4820 700L5064 700Q5177 700 5243 647Q5309 594 5309 490Q5309 413 5270 364Q5232 316 5166 297L5320 31Q5323 25 5323 20Q5323 12 5316 6Q5310 0 5302 0L5254 0Q5237 0 5229 9Q5221 18 5215 27L5070 281L4895 281L4895 23Q4895 13 4888 6Q4882 0 4871 0ZM4895 616L4895 366L5060 366Q5135 366 5172 397Q5209 429 5209 491Q5209 552 5172 584Q5136 616 5060 616L4895 616ZM5707 0L5475 0Q5464 0 5458 6Q5452 13 5452 23L5452 676Q5452 687 5458 693Q5464 700 5475 700L5702 700Q5805 700 5868 669Q5931 638 5960 577Q5989 517 5990 429Q5991 384 5991 350Q5991 316 5990 272Q5988 180 5959 119Q5931 59 5869 29Q5808 0 5707 0ZM5550 615L5550 85L5702 85Q5771 85 5812 104Q5853 123 5871 165Q5890 207 5891 276Q5893 306 5893 328Q5893 351 5893 373Q5893 396 5891 425Q5889 522 5845 568Q5801 615 5697 615L5550 615Z" fill="#ffffff" style=""></path></g></g></g></svg>